<svg id="filter_alt_black_24dp" xmlns="http://www.w3.org/2000/svg" width="77" height="77" viewBox="0 0 77 77">
  <path id="패스_10" data-name="패스 10" d="M0,0H77m0,77H0" fill="none"/>
  <path id="패스_11" data-name="패스 11" d="M13.54,10.417H45.624L29.55,30.629ZM4.717,9.165c6.481,8.31,18.448,23.71,18.448,23.71v19.25a3.218,3.218,0,0,0,3.208,3.208H32.79A3.218,3.218,0,0,0,36,52.125V32.875s11.935-15.4,18.416-23.71A3.2,3.2,0,0,0,51.88,4H7.252A3.2,3.2,0,0,0,4.717,9.165Z" transform="translate(8.918 8.833)" fill="#ff17cc"/>
  <path id="패스_12" data-name="패스 12" d="M0,0H77V77H0Z" fill="none"/>
</svg>
